<?xml version="1.0" encoding="utf-8"?>
<!-- Generator: Adobe Illustrator 16.0.4, SVG Export Plug-In . SVG Version: 6.00 Build 0)  -->
<!DOCTYPE svg PUBLIC "-//W3C//DTD SVG 1.1//EN" "http://www.w3.org/Graphics/SVG/1.1/DTD/svg11.dtd">
<svg version="1.1" id="Layer_1" xmlns="http://www.w3.org/2000/svg" xmlns:xlink="http://www.w3.org/1999/xlink" x="0px" y="0px"
	 width="504px" height="513px" viewBox="0 0 504 513" enable-background="new 0 0 504 513" xml:space="preserve">
<path fill="none" stroke="#231F20" stroke-width="14" stroke-miterlimit="10" d="M418.446,484.894l61.729-114.072l-70.796-114.375
	l70.796-113.632L418.446,29.179H152.534L22.914,256.747l129.621,228.147H418.446z"/>
<g display="none">
	<path display="inline" fill="#1A171B" d="M-340.647,894.129h-93.047V664.617h92.393c31.015,0,55.177,24.489,55.177,54.854
		c0,23.499-14.367,42.762-35.917,50.272c26.449,7.51,46.04,30.69,46.04,60.068C-276.002,865.405-304.737,894.129-340.647,894.129z
		 M-343.263,676.695h-76.724v88.477h73.787c24.485,0,46.036-19.916,46.036-44.396C-300.164,696.609-319.101,676.695-343.263,676.695
		z M-346.199,776.602h-73.787v105.45h77.377c29.382,0,51.583-23.511,51.583-52.563
		C-291.026,800.102-313.881,776.602-346.199,776.602z"/>
	<path display="inline" fill="#1A171B" d="M-248.671,894.129V664.617h137.772v12.412h-123.733v90.429h94.024v12.731h-94.024v101.533
		h130.264v12.406H-248.671z"/>
	<path display="inline" fill="#1A171B" d="M75.049,894.129L52.201,827.53h-103.17l-23.179,66.599h-14.693l82.927-229.512H8.125
		l81.941,229.512H75.049z M0.943,677.029l-47.995,139.402h95.658L0.943,677.029z"/>
	<path display="inline" fill="#1A171B" d="M149.854,677.029v217.1h-13.71V677.35H66.277v-12.732h153.774v12.412H149.854z"/>
	<path display="inline" fill="#1A171B" d="M490.821,898.702c-59.75,0-79.664-34.604-79.664-98.601V664.617h14.042v137.125
		c0,55.171,15.341,84.553,65.622,84.553c50.604,0,65.944-29.382,65.944-84.553V664.617h14.042v135.484
		C570.808,864.098,550.892,898.702,490.821,898.702z"/>
	<path display="inline" fill="#1A171B" d="M611.627,894.129V664.617h13.717v229.512H611.627z"/>
	<path display="inline" fill="#1A171B" d="M742.878,894.129h-71.826V664.617h71.826c57.132,0,92.057,51.256,92.057,114.598
		C834.935,842.878,800.01,894.129,742.878,894.129z M742.878,677.029H684.76v204.693h58.118c47.656,0,77.052-45.704,77.052-102.508
		C819.93,722.73,790.534,677.029,742.878,677.029z"/>
	<path display="inline" fill="#1A171B" d="M867.388,894.129V664.617h137.771v12.412h-123.73v90.429h94.02v12.731h-94.02v101.533
		h130.266v12.406H867.388z"/>
	<path display="inline" fill="#1A171B" d="M368.559,791.219v90.504H310.45c-47.666,0-77.055-45.704-77.055-102.508
		c0-56.484,29.389-102.186,77.055-102.186h58.108v0.078h13.717v-12.49H310.45c-57.133,0-92.068,51.256-92.068,114.598
		c0,63.663,34.936,114.914,92.068,114.914h71.825v-102.91H368.559z"/>
</g>
</svg>
